<svg xmlns="http://www.w3.org/2000/svg" width="248.23" height="208" viewBox="0 0 248.23 208">
  <defs>
    <style>
      .cls-1 {
        fill: #e6e6e6;
      }
    </style>
  </defs>
  <title>logo_nasikas</title>
  <g id="Layer_2" data-name="Layer 2">
    <g id="Layer_1-2" data-name="Layer 1">
      <g>
        <path class="cls-1" d="M47.23,198.09a3.86,3.86,0,0,1,2.86,1.18,4,4,0,0,1,1.15,2.94,4.08,4.08,0,0,1-1.14,3,4.09,4.09,0,0,1-5.75,0,4.41,4.41,0,0,1,0-5.92,3.82,3.82,0,0,1,2.88-1.17m0-1.64a5.69,5.69,0,0,0-4.16,1.67,5.81,5.81,0,0,0,0,8.21,6,6,0,0,0,8.32,0,5.76,5.76,0,0,0,0-8.21A5.73,5.73,0,0,0,47.21,196.45Z"/>
        <path class="cls-1" d="M59.63,198.23a2,2,0,0,1,1.46.51,1.77,1.77,0,0,1,.52,1.34,1.73,1.73,0,0,1-.52,1.32,2,2,0,0,1-1.46.5H57.38v-3.67Zm0-1.6H55.58v11.19h1.8V203.5h2.28a3.92,3.92,0,0,0,2.75-1,3.45,3.45,0,0,0,0-5A4,4,0,0,0,59.66,196.63Z"/>
        <polygon class="cls-1" points="75.01 196.63 73.22 196.63 73.22 201.09 67.59 201.09 67.59 196.63 65.8 196.63 65.8 207.82 67.59 207.82 67.59 202.7 73.22 202.7 73.22 207.82 75.01 207.82 75.01 196.63"/>
        <polygon class="cls-1" points="86.38 196.63 77.05 196.63 77.05 198.25 80.81 198.25 80.81 207.82 82.61 207.82 82.61 198.25 86.38 198.25 86.38 196.63"/>
        <polygon class="cls-1" points="97.62 196.63 95.82 196.63 95.82 201.09 90.19 201.09 90.19 196.63 88.4 196.63 88.4 207.82 90.19 207.82 90.19 202.7 95.82 202.7 95.82 207.82 97.62 207.82 97.62 196.63"/>
        <path class="cls-1" d="M106.83,204.41h-3.71l1.87-4.64Zm1.46,3.41h1.93l-4.93-11.37h-.61l-4.93,11.37h1.92l.79-1.87h5Z"/>
        <polygon class="cls-1" points="114.14 196.63 112.34 196.63 112.34 207.82 119.25 207.82 119.25 206.21 114.14 206.21 114.14 196.63"/>
        <polygon class="cls-1" points="131.42 196.45 126.72 202.7 122.03 196.45 121.41 196.45 121.41 207.82 123.2 207.82 123.2 200.8 126.42 205 127.03 205 130.23 200.8 130.23 207.82 132.03 207.82 132.03 196.45 131.42 196.45"/>
        <path class="cls-1" d="M140.38,198.09a3.88,3.88,0,0,1,2.87,1.18,4.37,4.37,0,0,1,0,5.91,4.09,4.09,0,0,1-5.75,0,4.44,4.44,0,0,1,0-5.92,3.85,3.85,0,0,1,2.88-1.17m0-1.64a5.68,5.68,0,0,0-4.16,1.67,5.78,5.78,0,0,0,0,8.21,6,6,0,0,0,8.31,0,5.76,5.76,0,0,0,0-8.21A5.7,5.7,0,0,0,140.37,196.45Z"/>
        <polygon class="cls-1" points="150.53 196.63 148.74 196.63 148.74 207.82 155.65 207.82 155.65 206.21 150.53 206.21 150.53 196.63"/>
        <path class="cls-1" d="M162.41,198.09a3.86,3.86,0,0,1,2.86,1.18,4,4,0,0,1,1.15,2.94,4.08,4.08,0,0,1-1.14,3,4.09,4.09,0,0,1-5.75,0,4.41,4.41,0,0,1,0-5.92,3.85,3.85,0,0,1,2.88-1.17m0-1.64a5.69,5.69,0,0,0-4.16,1.67,5.81,5.81,0,0,0,0,8.21,6,6,0,0,0,8.32,0,5.76,5.76,0,0,0,0-8.21A5.73,5.73,0,0,0,162.39,196.45Z"/>
        <path class="cls-1" d="M29.84,115.56c16.13-.34,30.33,12.86,30,28.74.34,16-13.86,29-30,28.74C13.62,173.29-.33,160.35,0,144.3c-.34-15.88,13.61-29.08,29.83-28.74m.08,13.27c-8.91,0-15.12,6.31-15.12,15.47A15.53,15.53,0,0,0,19,155.56a14.89,14.89,0,0,0,10.92,4.2c8.57,0,15.13-6.22,15.13-15.46S38.49,128.83,29.92,128.83Z"/>
        <path class="cls-1" d="M95.21,115.56c11.09,0,20.33,5.46,25.37,14.87l-11,7.48c-3.61-6-8.4-9.08-14.45-9.08-8.82,0-15.12,6.22-15.12,15.55a15.34,15.34,0,0,0,4.2,11.18,15,15,0,0,0,10.92,4.2c6,0,10.84-3,14.45-9.08l11,7.48c-5,9.41-14.28,14.87-25.46,14.87-16.3.26-30.25-12.68-29.91-28.73-.26-15.88,13.53-29.08,30-28.74"/>
        <polygon class="cls-1" points="128.81 116.57 143.27 116.57 143.27 159 166.21 159 166.21 172.03 128.81 172.03 128.81 116.57"/>
        <rect class="cls-1" x="173.77" y="116.57" width="14.45" height="55.46"/>
        <path class="cls-1" d="M199,116.57h14.45v33c0,6.3,4.12,10.17,10.09,10.17s10.08-3.87,10.08-10.17v-33h14.46V148.5c0,14.62-10.51,24.54-24.54,24.54-14.2,0-24.54-9.75-24.54-24.54Z"/>
        <path class="cls-1" d="M176,196.45a5.71,5.71,0,0,0-4.19,1.67,5.79,5.79,0,0,0,0,8.22A5.75,5.75,0,0,0,176,208a6,6,0,0,0,3.08-.8,5.64,5.64,0,0,0,2.14-2.14V201.9H176v1.6h3.44v1.2a3.75,3.75,0,0,1-3.33,1.69,4,4,0,0,1-3-1.18,4.12,4.12,0,0,1-1.15-3,4.08,4.08,0,0,1,1.12-3,3.81,3.81,0,0,1,2.89-1.17,3.91,3.91,0,0,1,3.34,1.76l1.31-1.06a5.36,5.36,0,0,0-4.63-2.34"/>
        <rect class="cls-1" x="183.74" y="196.63" width="1.8" height="11.18"/>
        <path class="cls-1" d="M192.06,196.45a3.82,3.82,0,0,0-2.51.84,2.69,2.69,0,0,0-1,2.19,2.5,2.5,0,0,0,.68,1.81,5.9,5.9,0,0,0,1.93,1.29l1.23.58a5.39,5.39,0,0,1,1.26.74,1.19,1.19,0,0,1,.39.94,1.36,1.36,0,0,1-.54,1.13,2.18,2.18,0,0,1-1.4.42,3.55,3.55,0,0,1-2.93-1.77l-1.27,1a4.68,4.68,0,0,0,1.75,1.78,4.79,4.79,0,0,0,2.47.64,4,4,0,0,0,2.69-.89,2.92,2.92,0,0,0,1.06-2.34,2.57,2.57,0,0,0-.67-1.83,6.21,6.21,0,0,0-2-1.36l-1.26-.57a5.64,5.64,0,0,1-1.2-.72,1.07,1.07,0,0,1-.35-.88,1.14,1.14,0,0,1,.49-1,2,2,0,0,1,1.2-.35,2.7,2.7,0,0,1,2.35,1.35l1.26-1A4,4,0,0,0,194.2,197a4.19,4.19,0,0,0-2.14-.55"/>
        <polygon class="cls-1" points="206.7 196.63 197.36 196.63 197.36 198.25 201.13 198.25 201.13 207.82 202.92 207.82 202.92 198.25 206.7 198.25 206.7 196.63"/>
        <path class="cls-1" d="M124.82,76.78h-2.66c0-6.79-.09-13.55-.14-20.33l-.45,0c-.88,3.22-1.75,6.43-2.63,9.66l-2.48-.71,2.62-9.61c-.12.06-.24.08-.28.15-.52.87-1,1.76-1.53,2.64s-1.22,2.05-1.8,3.09c-.5.87-.94,1.77-1.43,2.65-.33.6-.71,1.19-1.05,1.79-.49.88-.95,1.77-1.45,2.64-.38.67-.8,1.31-1.19,2s-.9,1.51-1.34,2.28a2.32,2.32,0,0,0-.15.45l-2.32-1.24c.19-.32.36-.59.52-.88.36-.62.7-1.25,1.06-1.87.64-1.13,1.29-2.26,1.94-3.38.48-.83,1-1.65,1.45-2.47s.86-1.49,1.27-2.25c.62-1.13,1.21-2.28,1.84-3.4s1.3-2.2,2-3.35l-.39-.33-7,7.07-1.86-1.9,6.88-6.88-.11-.14a6.31,6.31,0,0,0-.75.33q-1.53.89-3,1.8c-.92.55-1.83,1.13-2.75,1.67s-2.17,1.23-3.24,1.86-2.19,1.32-3.28,2l-2.25,1.34q-.91.54-1.83,1a1.69,1.69,0,0,1-.35.1c-.43-.77-.84-1.48-1.23-2.16.79-.48,1.48-.92,2.2-1.33s1.62-.92,2.43-1.39,1.38-.85,2.08-1.27,1.35-.81,2-1.2c1.11-.65,2.24-1.27,3.35-1.92s2.08-1.28,3.13-1.9c.59-.36,1.2-.69,1.79-1,.1-.06.19-.14.33-.24a1.23,1.23,0,0,0-1,0c-.45.09-.9.26-1.35.38-.68.2-1.36.39-2,.57-.37.09-.76.14-1.14.24-.72.18-1.44.38-2.16.58l-1.75.45a1.15,1.15,0,0,1-.31,0c-.18-.8-.35-1.59-.55-2.45l9.27-2.37c0-.32-.16-.29-.34-.29h-3.58l-15.69,0h-.42V44.61H111.6V43.4l-9.06-2.69c.22-.81.42-1.56.65-2.39a3.55,3.55,0,0,1,.57,0c.56.15,1.12.32,1.67.49.85.26,1.7.53,2.55.78.54.17,1.09.31,1.63.47.72.21,1.43.43,2.15.66l.62.2c.24-.17.12-.31,0-.41l-1.52-.89L107.9,37.9c-1.24-.74-2.48-1.47-3.72-2.22-.82-.49-1.63-1-2.45-1.49-1-.61-2-1.25-3-1.86s-2.16-1.25-3.31-1.91l1.28-2.17a5.54,5.54,0,0,1,.78.33c.82.48,1.62,1,2.42,1.48l3,1.85c.63.38,1.27.73,1.89,1.11,1,.6,1.94,1.23,2.92,1.81s2.25,1.31,3.38,2l2.39,1.45c.11.07.23.12.39.21l.38-.64-6.43-7,1.89-1.76,6.47,7a2.41,2.41,0,0,1,.24-.21c-.32-.58-.64-1.15-1-1.73l-1.29-2.35-1.25-2.3-1.28-2.4c-.47-.87-.94-1.74-1.4-2.62-.56-1.07-1.09-2.15-1.65-3.22s-1-1.93-1.58-2.92c.69-.4,1.35-.78,2-1.14.18-.1.29,0,.4.17.6,1.16,1.21,2.31,1.84,3.45.49.91,1,1.8,1.51,2.71.62,1.18,1.19,2.38,1.81,3.55s1.27,2.28,1.89,3.42c.45.81.89,1.61,1.32,2.43.3.58.58,1.17.88,1.77l.53-.22c-.07-.45-.14-.91-.24-1.37s-.22-1-.33-1.53-.27-1.08-.39-1.62c-.15-.7-.27-1.41-.42-2.11s-.27-1.15-.4-1.73c-.08-.33-.14-.67-.22-1l2.52-.5c.68,3.11,1.35,6.13,2,9.21l.35,0v-1c.06-2,.11-4,.18-5.93,0-1.1.08-2.21.12-3.31.06-1.55.11-3.09.17-4.64,0-1.27.08-2.55.14-3.82,0-.4.1-.8.15-1.26l2.47.17a2.75,2.75,0,0,1,0,.4c-.06,2-.11,3.92-.18,5.89,0,1.13-.09,2.25-.13,3.38,0,1.54-.1,3.07-.16,4.6-.05,1.26-.08,2.51-.14,3.76,0,.61-.11,1.21-.17,1.87l.8.22c1-3.06,2-6.06,3.09-9.13a14.23,14.23,0,0,1,2.42.79c-1,3.09-2.06,6.13-3.05,9.19l.22.1,11-16.88,2,1.35a.88.88,0,0,1-.06.29l-1.6,2.39c-.21.32-.35.67-.56,1-.61.94-1.25,1.86-1.86,2.8-.49.75-1,1.51-1.43,2.27l-.81,1.23c-.21.34-.41.69-.64,1s-.56.78-.82,1.18c-.52.77-1,1.56-1.53,2.34l-1.55,2.43c.2.22.34.13.5,0L132.42,35c.38-.35.76-.72,1.15-1.07l4.2-3.81c.45.76,1.24,1.2,1.65,1.94-2.42,2.25-4.79,4.45-7.15,6.66,0,0,0,.06.08.14l2.45-1.32,2.42-1.32L139.6,35,142,33.72l2.63-1.4c.79-.42,1.57-.85,2.36-1.26,1.08-.55,2.17-1.08,3.29-1.64l1.19,2.25-17.88,9.49c0,.12,0,.21,0,.34L143,39.1c.21.88.41,1.68.61,2.5L134.18,44l0,.14a1,1,0,0,0,.34.14c.69,0,1.38,0,2.07,0q16,0,32,0c11.44,0,67.82.09,79.26.13h.37v2.63c-23-.09-91-.18-114-.28a.86.86,0,0,0-.07.1c.08.1.15.25.27.31a2.76,2.76,0,0,0,.51.16c1,.28,2.08.55,3.11.84.81.21,1.61.42,2.41.66s1.41.47,2.12.7l1.15.33c-.24.85-.46,1.65-.68,2.45l-9.69-2.81-.13.2.29.13c1.06.6,2.13,1.19,3.18,1.81s2.06,1.25,3.09,1.88c.74.44,1.47.9,2.21,1.33l4.45,2.62c.73.43,1.45.88,2.18,1.3s1.51.86,2.33,1.33l-1.34,2.21L132,52l-.24.26,7.17,7.34-1.83,1.82-7.17-7.33a.41.41,0,0,1-.11.07l.47.84c.47.84.94,1.69,1.42,2.52.37.65.76,1.27,1.14,1.91s.88,1.47,1.3,2.22.76,1.43,1.16,2.13,1,1.68,1.49,2.53c.72,1.26,1.41,2.53,2.12,3.79.34.6.71,1.19,1.11,1.87l-2.22,1.27c-.29-.46-.59-.93-.87-1.4s-.53-1-.8-1.44c-.38-.67-.76-1.35-1.15-2-.18-.32-.4-.62-.58-.94-.38-.66-.74-1.32-1.11-2l-2.07-3.66L129.62,59l-1.87-3.23a3.46,3.46,0,0,0-.22-.31h-.13a1.26,1.26,0,0,0-.07.46q.28,1.28.63,2.52c.16.59.35,1.16.52,1.73s.24.89.36,1.33c.26,1,.52,2,.77,2.93.07.28.13.57.2.9l-2.46.69c-.87-3.31-1.72-6.52-2.57-9.74l-.15,0c0,6.8,0,13.6.19,20.46"/>
        <path class="cls-1" d="M191.33,50a90.42,90.42,0,0,1-33.44,24.27A45.09,45.09,0,0,0,168.12,50H158.7A36,36,0,0,1,125,81.25c-.67,0-1.34.06-2,.06h0c-.65,0-1.31,0-2-.06a36,36,0,0,1,0-71.84c.65,0,1.31-.06,2-.06h0c.67,0,1.34,0,2,.06A36,36,0,0,1,158.7,40.66h9.42a45.12,45.12,0,0,0-10.23-24.28,90.33,90.33,0,0,1,33.44,24.28h11.95A99.67,99.67,0,0,0,123,0h0A99.66,99.66,0,0,0,41.34,42.65l-1.86,2.68L41.34,48A99.66,99.66,0,0,0,123,90.65h0A99.68,99.68,0,0,0,203.29,50ZM51,45.33A90.3,90.3,0,0,1,88.18,16.38a45.23,45.23,0,0,0,0,57.9A90.38,90.38,0,0,1,51,45.33Z"/>
      </g>
    </g>
  </g>
</svg>
